<svg xmlns="http://www.w3.org/2000/svg" width="1200" height="1200" viewBox="0 0 1200 1200">
  <defs>
    <radialGradient id="g1" cx="50%" cy="38%" r="60%">
      <stop offset="0" stop-color="#f8f4ec" stop-opacity=".16"/>
      <stop offset=".65" stop-color="#f8f4ec" stop-opacity=".05"/>
      <stop offset="1" stop-color="#f8f4ec" stop-opacity="0"/>
    </radialGradient>
    <linearGradient id="g2" x1="0" x2="1" y1="0" y2="1">
      <stop offset="0" stop-color="#f8f4ec" stop-opacity=".28"/>
      <stop offset="1" stop-color="#f8f4ec" stop-opacity=".06"/>
    </linearGradient>
  </defs>
  <rect width="1200" height="1200" fill="none"/>
  <circle cx="610" cy="445" r="250" fill="url(#g1)"/>
  <g fill="none" stroke="#f8f4ec" stroke-opacity=".18" stroke-width="4">
    <path d="M106 260h210"/>
    <path d="M910 210h150"/>
    <path d="M110 1040h210"/>
    <path d="M860 980h210"/>
    <path d="M210 320c180 30 245 160 360 160s185-80 342-134"/>
    <path d="M360 860c120-52 190-34 282 22s168 42 236 4"/>
  </g>
  <g transform="translate(310 160)">
    <path d="M252 74c-96 0-172 78-172 174v72c0 24-8 46-23 64l-36 44c-18 22-24 52-14 79 13 35 49 57 86 53l47-5 22 38c28 48 80 78 137 78h86c55 0 106-29 135-76l23-39 48 5c38 4 74-18 87-53 10-27 4-57-14-79l-36-44c-15-18-23-40-23-64v-72c0-96-78-174-174-174H252z" fill="url(#g2)" stroke="#f8f4ec" stroke-opacity=".18" stroke-width="6"/>
    <circle cx="352" cy="234" r="112" fill="#0f0f10" stroke="#f8f4ec" stroke-opacity=".16" stroke-width="6"/>
    <circle cx="312" cy="206" r="18" fill="#f8f4ec" fill-opacity=".16"/>
    <circle cx="392" cy="206" r="18" fill="#f8f4ec" fill-opacity=".16"/>
    <path d="M306 272c24 18 55 28 86 28s62-10 86-28" fill="none" stroke="#f8f4ec" stroke-opacity=".22" stroke-width="8" stroke-linecap="round"/>
    <path d="M184 396h468" stroke="#f8f4ec" stroke-opacity=".12" stroke-width="10" stroke-linecap="round"/>
    <path d="M146 418l-72 78" stroke="#f8f4ec" stroke-opacity=".12" stroke-width="8" stroke-linecap="round"/>
    <path d="M514 418l74 78" stroke="#f8f4ec" stroke-opacity=".12" stroke-width="8" stroke-linecap="round"/>
  </g>
</svg>

