<svg xmlns="http://www.w3.org/2000/svg" width="1600" height="900" viewBox="0 0 1600 900">
  <defs>
    <linearGradient id="bg" x1="0" x2="1" y1="0" y2="1">
      <stop offset="0" stop-color="#0b1220"/>
      <stop offset="1" stop-color="#0f2640"/>
    </linearGradient>
    <linearGradient id="ac" x1="0" x2="1" y1="0" y2="1">
      <stop offset="0" stop-color="#31d5ff"/>
      <stop offset="1" stop-color="#6ef2c6"/>
    </linearGradient>
  </defs>
  <rect width="1600" height="900" rx="48" fill="url(#bg)"/>
  <circle cx="1180" cy="260" r="250" fill="#31d5ff" fill-opacity=".10"/>
  <rect x="88" y="92" width="1420" height="716" rx="34" fill="#101824" stroke="#ffffff" stroke-opacity=".08"/>
  <rect x="132" y="160" width="520" height="120" rx="24" fill="#13263c"/>
  <rect x="132" y="330" width="420" height="260" rx="26" fill="#13263c"/>
  <rect x="596" y="330" width="412" height="260" rx="26" fill="#13263c"/>
  <rect x="1048" y="160" width="350" height="430" rx="28" fill="#0f1722"/>
  <g stroke="url(#ac)" stroke-width="10" stroke-linecap="round" fill="none">
    <path d="M186 232h280"/>
    <path d="M186 478h292"/>
    <path d="M186 520h220"/>
    <path d="M646 442c72-90 128-122 208-122s140 48 204 126"/>
  </g>
</svg>

